<svg fill="current"  width="13" height="33" viewBox="0 0 13 33" xmlns="http://www.w3.org/2000/svg">
<path class="nav-icon" d="M3.25 3.45153C3.25 2.58078 3.59241 1.74569 4.2019 1.12998C4.8114 0.514269 5.63805 0.168365 6.5 0.168365C7.36195 0.168365 8.1886 0.514269 8.7981 1.12998C9.40759 1.74569 9.75 2.58078 9.75 3.45153C9.75 4.32228 9.40759 5.15736 8.7981 5.77308C8.1886 6.38879 7.36195 6.73469 6.5 6.73469C5.63805 6.73469 4.8114 6.38879 4.2019 5.77308C3.59241 5.15736 3.25 4.32228 3.25 3.45153ZM0 13.301C0 12.0904 0.968229 11.1122 2.16667 11.1122H6.5C7.69844 11.1122 8.66667 12.0904 8.66667 13.301V28.6224H10.8333C12.0318 28.6224 13 29.6006 13 30.8112C13 32.0219 12.0318 33 10.8333 33H2.16667C0.968229 33 0 32.0219 0 30.8112C0 29.6006 0.968229 28.6224 2.16667 28.6224H4.33333V15.4898H2.16667C0.968229 15.4898 0 14.5117 0 13.301Z"/>
</svg>
