<svg fill="current" width="47" height="37" viewBox="0 0 47 37" fill="none" xmlns="http://www.w3.org/2000/svg">
<path class="nav-icon" d="M13.0556 4.01476H41.7778C42.4958 4.01476 43.0833 4.60734 43.0833 5.3316V23.7674C43.0833 24.4916 42.4958 25.0842 41.7778 25.0842H40.0479L31.6679 12.1545C31.3089 11.5948 30.6887 11.2574 30.0278 11.2574C29.3668 11.2574 28.7467 11.5948 28.3877 12.1545L24.1283 18.7222L23.1165 17.3313C22.7493 16.821 22.1618 16.5247 21.5335 16.5247C20.9052 16.5247 20.3259 16.821 19.9505 17.3313L14.3285 25.0842H13.0556C12.3375 25.0842 11.75 24.4916 11.75 23.7674V5.3316C11.75 4.60734 12.3375 4.01476 13.0556 4.01476ZM7.83333 5.3316V23.7674C7.83333 26.6726 10.1752 29.0347 13.0556 29.0347H41.7778C44.6582 29.0347 47 26.6726 47 23.7674V5.3316C47 2.42632 44.6582 0.0642395 41.7778 0.0642395H13.0556C10.1752 0.0642395 7.83333 2.42632 7.83333 5.3316ZM3.91667 7.30686C3.91667 6.21224 3.04358 5.3316 1.95833 5.3316C0.87309 5.3316 0 6.21224 0 7.30686V25.7426C0 31.9235 4.96927 36.9358 11.0972 36.9358H37.2083C38.2936 36.9358 39.1667 36.0551 39.1667 34.9605C39.1667 33.8659 38.2936 32.9852 37.2083 32.9852H11.0972C7.1316 32.9852 3.91667 29.7425 3.91667 25.7426V7.30686ZM20.8889 9.28212C20.8889 8.58363 20.6138 7.91374 20.1241 7.41983C19.6344 6.92592 18.9703 6.64844 18.2778 6.64844C17.5853 6.64844 16.9211 6.92592 16.4314 7.41983C15.9418 7.91374 15.6667 8.58363 15.6667 9.28212C15.6667 9.98062 15.9418 10.6505 16.4314 11.1444C16.9211 11.6383 17.5853 11.9158 18.2778 11.9158C18.9703 11.9158 19.6344 11.6383 20.1241 11.1444C20.6138 10.6505 20.8889 9.98062 20.8889 9.28212Z"/>
</svg>
