<svg fill="current" width="40" height="35" viewBox="0 0 40 35" xmlns="http://www.w3.org/2000/svg">
<path class="nav-icon" d="M12.2434 1.39133C13.0069 2.08085 13.0686 3.25071 12.3822 4.0177L6.8293 10.2156C6.48995 10.5952 6.01179 10.8199 5.50277 10.8277C4.99376 10.8354 4.50788 10.6417 4.1454 10.2853L1.05275 7.18638C0.335506 6.45813 0.335506 5.28053 1.05275 4.55227C1.77 3.82401 2.94999 3.82401 3.66724 4.55227L5.37166 6.26444L9.62116 1.52304C10.3076 0.756046 11.4721 0.694067 12.2356 1.38358L12.2434 1.39133ZM12.2434 13.7872C13.0069 14.4767 13.0686 15.6465 12.3822 16.4135L6.8293 22.6114C6.48995 22.9911 6.01179 23.2157 5.50277 23.2235C4.99376 23.2312 4.50788 23.0376 4.1454 22.6812L1.05275 19.5822C0.327793 18.854 0.327793 17.6764 1.05275 16.9559C1.77771 16.2353 2.94999 16.2276 3.66724 16.9559L5.37166 18.668L9.62116 13.9266C10.3076 13.1596 11.4721 13.0976 12.2356 13.7872H12.2434ZM17.7885 5.86933C17.7885 4.49804 18.8914 3.39016 20.2565 3.39016H37.5321C38.8972 3.39016 40.0001 4.49804 40.0001 5.86933C40.0001 7.24062 38.8972 8.34849 37.5321 8.34849H20.2565C18.8914 8.34849 17.7885 7.24062 17.7885 5.86933ZM17.7885 18.2652C17.7885 16.8939 18.8914 15.786 20.2565 15.786H37.5321C38.8972 15.786 40.0001 16.8939 40.0001 18.2652C40.0001 19.6364 38.8972 20.7443 37.5321 20.7443H20.2565C18.8914 20.7443 17.7885 19.6364 17.7885 18.2652ZM12.8526 30.661C12.8526 29.2897 13.9555 28.1818 15.3206 28.1818H37.5321C38.8972 28.1818 40.0001 29.2897 40.0001 30.661C40.0001 32.0323 38.8972 33.1402 37.5321 33.1402H15.3206C13.9555 33.1402 12.8526 32.0323 12.8526 30.661ZM4.21481 26.9422C5.19662 26.9422 6.13822 27.334 6.83247 28.0314C7.52671 28.7288 7.91673 29.6747 7.91673 30.661C7.91673 31.6473 7.52671 32.5931 6.83247 33.2905C6.13822 33.9879 5.19662 34.3797 4.21481 34.3797C3.233 34.3797 2.2914 33.9879 1.59716 33.2905C0.902912 32.5931 0.512889 31.6473 0.512889 30.661C0.512889 29.6747 0.902912 28.7288 1.59716 28.0314C2.2914 27.334 3.233 26.9422 4.21481 26.9422Z"/>
</svg>
