<svg width="53" height="43" viewBox="0 0 53 43" xmlns="http://www.w3.org/2000/svg">
<path d="M10.3056 6.50454C7.86719 6.50454 5.88889 8.51955 5.88889 11.0032V21.5H14.7222V11.0032C14.7222 8.51955 12.7439 6.50454 10.3056 6.50454ZM0 11.0032C0 5.2018 4.6099 0.506348 10.3056 0.506348C16.0012 0.506348 20.6111 5.2018 20.6111 11.0032V31.9968C20.6111 37.7982 16.0012 42.4937 10.3056 42.4937C4.6099 42.4937 0 37.7982 0 31.9968V11.0032ZM51.0585 34.9397C50.4052 36.0925 48.8778 36.1675 47.9484 35.2302L30.6866 17.648C29.7665 16.7108 29.8309 15.1457 30.9719 14.4803C33.125 13.2244 35.6186 12.5027 38.2778 12.5027C46.4118 12.5027 53 19.2132 53 27.4982C53 30.2068 52.2915 32.7466 51.0585 34.9397ZM45.5837 40.5161C43.4306 41.772 40.937 42.4937 38.2778 42.4937C30.1437 42.4937 23.5556 35.7832 23.5556 27.4982C23.5556 24.7896 24.2641 22.2498 25.497 20.0567C26.1503 18.9039 27.6778 18.8289 28.6071 19.7662L45.8689 37.3484C46.7891 38.2856 46.7247 39.8507 45.5837 40.5161Z"/>
</svg>
