<?xml version="1.0" standalone="no"?>
<!DOCTYPE svg PUBLIC "-//W3C//DTD SVG 20010904//EN"
 "http://www.w3.org/TR/2001/REC-SVG-20010904/DTD/svg10.dtd">
<svg version="1.0" xmlns="http://www.w3.org/2000/svg"
 width="893.000000pt" height="1280.000000pt" viewBox="0 0 893.000000 1280.000000"
 preserveAspectRatio="xMidYMid meet">
<g transform="translate(0.000000,1280.000000) scale(0.100000,-0.100000)"
 stroke="none">
<path d="M2350 12338 c-622 -1613 -1269 -3128 -1996 -4669 -85 -180 -154 -333
-154 -340 0 -17 315 -222 334 -217 7 2 155 167 327 368 172 201 364 424 428
495 144 162 368 391 376 383 3 -3 -24 -77 -61 -164 -167 -396 -227 -582 -222
-676 3 -49 5 -53 30 -56 60 -7 153 68 498 403 281 272 432 404 560 490 92 61
196 115 224 115 18 0 33 -38 66 -169 195 -784 255 -2024 164 -3376 -65 -969
-188 -1947 -405 -3217 -44 -259 -78 -473 -75 -475 3 -3 114 3 248 12 134 10
317 18 408 19 l165 1 6 -75 c15 -180 98 -252 304 -266 76 -6 1537 103 1895
141 247 26 346 63 444 165 93 98 135 210 210 570 251 1197 360 2413 316 3511
-36 896 -137 1638 -345 2544 -80 348 -87 393 -88 530 -1 169 40 278 136 360
69 59 135 79 262 79 162 0 226 -20 695 -214 69 -28 175 -65 235 -81 61 -15
119 -31 131 -34 12 -4 25 -1 33 8 10 13 152 238 200 319 l16 27 -225 228
c-124 125 -428 444 -675 708 -481 514 -891 934 -1178 1206 -853 809 -1656
1319 -2527 1604 -109 35 -575 165 -594 165 -2 0 -76 -190 -166 -422z"/>
</g>
</svg>
